#N canvas 59 60 859 458 10;
#X obj 30 221 comport 1 9600;
#X obj 3 117 select 0 1;
#X obj 3 96 tgl 15 0 empty empty empty 17 7 0 10 -262144 -1 -1 0 1
;
#X msg 30 163 close;
#X msg 124 163 ports;
#X obj 111 245 route ports;
#X obj 111 267 print port_list;
#X text 123 144 will print out available ports to message window;
#X text 1 79 toggle to open serial port;
#X text 253 -37 Serial Call-Response Sends a byte out the serial port
\, and reads 3 bytes in. Sets foregound color \, xpos \, and ypos of
a circle using the values returned from the serial port. Note: This
patch assumes that the device on the other end of the serial port is
going to send a single byte of value 65 (ASCII A) on startup. The sketch
waits for that byte \, then sends an ASCII A whenever it wants more
data. Sept 28 \, 2010 by Scott Fitzgerald \, based off the Serial Call
and Rsponse Max/MSP example by Tom Igoe and myself;
#X obj -132 62 loadbang;
#X msg -132 83 pollintervall 10;
#X obj 4 408 tgl 15 0 empty empty empty 17 7 0 10 -262144 -1 -1 0 1
;
#X obj 3 140 t 0 b;
#X obj 30 369 sel 65;
#X obj 95 439 t b f;
#X msg 95 466 1;
#X obj 95 491 - 0;
#X obj 75 307 tgl 15 0 empty empty empty 17 7 0 10 -262144 -1 -1 0
1;
#X obj 30 333 spigot 1;
#X obj 46 439 sel 1;
#X msg 46 465 65;
#X obj -115 514 spigot;
#X obj -115 544 zl group 3;
#X obj -115 581 t 65 l;
#X obj -82 632 unpack 0 0 0;
#X floatatom -95 681 5 0 0 0 - - -;
#X floatatom -48 681 5 0 0 0 - - -;
#X floatatom 0 681 5 0 0 0 - - -;
#X text -133 43 Read serial input buffer every 10 milliseconds;
#X text 93 354 checks for the ascii value of "A" to begin cominucation.
After initial communication is made \, this block shuts down.;
#X text 20 401 reinitializes the gates when turned on and off;
#X text -66 568 trigger (or [t]) forces right-left conventions. All
the drawing and processing will happen before PD requests new values.
When this trigger fires \, it sends an ASCII A to ask Arduino for new
values.;
#X text 4 664 val3;
#X text -78 665 val1;
#X text -41 664 val2;
#X obj 347 538 cnv 15 140 65 empty empty empty 20 12 0 14 -195568 -66577
0;
#X msg 362 558 destroy;
#X text 358 537 Create window:;
#N canvas 475 403 450 300 gemwin 0;
#X obj 67 89 outlet;
#X obj 67 10 inlet;
#X obj 67 41 route create;
#X msg 67 70 set destroy;
#X msg 142 68 set create;
#X msg 132 93 create \, 1 \, frame 2;
#X msg 198 112 destroy \, reset;
#X obj 132 136 gemwin 33;
#X connect 1 0 2 0;
#X connect 2 0 3 0;
#X connect 2 0 5 0;
#X connect 2 1 4 0;
#X connect 2 1 6 0;
#X connect 3 0 0 0;
#X connect 4 0 0 0;
#X connect 5 0 7 0;
#X connect 6 0 7 0;
#X restore 362 578 pd gemwin;
#X obj 363 632 gemhead;
#X obj 0 702 sel 255 0;
#X msg 399 678 0 0 0;
#X msg 442 678 1 1 1;
#X obj 363 702 color 1 1 1;
#X obj 363 746 circle;
#X obj 363 724 translateXYZ;
#X obj -95 702 / 255;
#X obj -95 723 * 5;
#X obj -95 744 - 2.5;
#X obj -48 702 / 255;
#X obj -48 723 * 5;
#X obj -48 744 - 2.5;
#X text 297 512 CLICk THIS FIRST TO OPEN THE RENDER WINDOW;
#X msg 74 163 open 4;
#X obj -165 581 print;
#X connect 0 0 19 0;
#X connect 0 0 22 0;
#X connect 0 1 5 0;
#X connect 1 0 13 0;
#X connect 1 1 54 0;
#X connect 2 0 1 0;
#X connect 3 0 0 0;
#X connect 4 0 0 0;
#X connect 5 0 6 0;
#X connect 10 0 11 0;
#X connect 11 0 0 0;
#X connect 12 0 15 0;
#X connect 12 0 20 0;
#X connect 12 0 22 1;
#X connect 13 0 12 0;
#X connect 13 1 3 0;
#X connect 14 0 12 0;
#X connect 15 0 16 0;
#X connect 15 1 17 1;
#X connect 16 0 17 0;
#X connect 17 0 18 0;
#X connect 18 0 19 1;
#X connect 19 0 14 0;
#X connect 20 0 21 0;
#X connect 21 0 0 0;
#X connect 22 0 23 0;
#X connect 23 0 24 0;
#X connect 23 0 55 0;
#X connect 24 0 0 0;
#X connect 24 1 25 0;
#X connect 25 0 26 0;
#X connect 25 1 27 0;
#X connect 25 2 28 0;
#X connect 26 0 47 0;
#X connect 27 0 50 0;
#X connect 28 0 41 0;
#X connect 37 0 39 0;
#X connect 39 0 37 0;
#X connect 40 0 44 0;
#X connect 41 0 42 0;
#X connect 41 1 43 0;
#X connect 42 0 44 1;
#X connect 43 0 44 1;
#X connect 44 0 46 0;
#X connect 46 0 45 0;
#X connect 47 0 48 0;
#X connect 48 0 49 0;
#X connect 49 0 46 1;
#X connect 50 0 51 0;
#X connect 51 0 52 0;
#X connect 52 0 46 2;
#X connect 54 0 0 0;
