#N canvas 122 176 399 359 10;
#X obj -199 145 select 0 1;
#X obj -199 123 tgl 15 0 empty empty empty 17 7 0 10 -262144 -1 -1
0 1;
#X msg -199 173 close;
#X msg -219 87 ports;
#X obj -138 301 route ports;
#X obj -138 323 print port_list;
#X obj -69 189 select 0 1;
#X obj -69 123 tgl 15 0 empty empty empty 17 7 0 10 -262144 -1 -1 0
1;
#X obj 11 123 tgl 15 0 empty empty empty 17 7 0 10 -262144 -1 -1 0
1;
#X msg -69 223 76;
#X obj 11 143 metro 1000;
#X obj 11 165 tgl 15 0 empty empty empty 17 7 0 10 -262144 -1 -1 0
1;
#X msg -157 173 open 3;
#X obj -219 277 comport 3 9600;
#X msg -41 223 72;
#X text -34 205 'H';
#X text -63 205 'L';
#X text -220 68 puertos disponibles:;
#X text -201 105 Puerto serie ON/OFF:;
#X text -72 105 LED ON/OFF:;
#X text 8 105 LED parpadea cada segundo:;
#X text -223 -13 Physical Pixel Este patch envía una H ASCII H o una
L ASCII al puerto serie determinado para encender o apagar un LED conectado
a la placa Arduino. Tambien puede enviar caracteres H y L alternados
cada un segundo para lograr un efecto de parpadeo. 28 Sept 2010 por
Scott Fitzgerald \, basado en ejemplo por David Mellis \, Tom Igoe
y yo mismo.;
#X connect 0 0 2 0;
#X connect 0 1 12 0;
#X connect 1 0 0 0;
#X connect 2 0 13 0;
#X connect 3 0 13 0;
#X connect 4 0 5 0;
#X connect 6 0 9 0;
#X connect 6 1 14 0;
#X connect 7 0 6 0;
#X connect 8 0 10 0;
#X connect 9 0 13 0;
#X connect 10 0 11 0;
#X connect 11 0 6 0;
#X connect 12 0 13 0;
#X connect 13 1 4 0;
#X connect 14 0 13 0;
